<?xml version="1.0" encoding="UTF-8"?>
<!DOCTYPE svg PUBLIC "-//W3C//DTD SVG 1.1//EN" "http://www.w3.org/Graphics/SVG/1.1/DTD/svg11.dtd">
<!-- Creator: CorelDRAW 2018 (64 Bit Versión de evaluación) -->
<svg xmlns="http://www.w3.org/2000/svg" xml:space="preserve" width="362.961mm" height="54.0284mm" version="1.1" style="shape-rendering:geometricPrecision; text-rendering:geometricPrecision; image-rendering:optimizeQuality; fill-rule:evenodd; clip-rule:evenodd"
viewBox="0 0 36838.18 5483.53"
 xmlns:xlink="http://www.w3.org/1999/xlink">
 <defs>
  <style type="text/css">
   <![CDATA[
    .fil0 {fill:#FCD800;fill-rule:nonzero}
   ]]>
  </style>
 </defs>
 <g id="Capa_x0020_1">
  <metadata id="CorelCorpID_0Corel-Layer"/>
  <path class="fil0" d="M492.93 5483.53l4694.02 0c273.06,0 492.96,-286.69 492.96,-573.46l-5679.91 0c0,286.77 220.99,573.46 492.92,573.46z"/>
  <path class="fil0" d="M2408.41 1941.08c-49.05,3.4 -67.97,20.97 -110.62,86.24 -284.21,434.49 -1085.65,1662.89 -1213.83,1867 -106.17,170.05 -146.76,306 -112.7,441.17 28.89,126.45 126.99,214.47 280.55,248.11 38.55,3.94 76.01,-7.49 102.04,-39.94 207.35,-256.25 1370.52,-1816.99 1588.81,-2109.78 29.7,-39.94 22.48,-56.16 5.71,-89.95 -40.35,-82.15 -191.83,-248.76 -312.56,-327.24 -80.37,-52.22 -159.28,-76.43 -213.39,-76.43 -4.9,0 -9.65,0 -14.02,0.81z"/>
  <path class="fil0" d="M5108.36 4578.2c-242.23,-519.23 -1458.12,-3059.71 -1712.9,-3618.61 -131.24,-288.42 -268.69,-632.47 -391.04,-959.59l-1462.64 0c21.39,493.9 28.24,743.35 -51.21,976.62 -139.81,410.4 -593.65,840.37 -907.84,1173.37 -107.91,114.16 332.04,422.52 797.73,58.04 168.98,-132.85 435.88,-393.9 652.51,-563.64 97.95,-77.55 224.82,-113.66 353.97,-94.58 179.05,26.19 301.94,108.61 427.27,259.03 126.99,152.44 247.19,358.72 410.78,626.33 308.9,505.21 696.65,1175.42 1068.89,1766.43 189.4,300.98 441.17,426.89 787.22,418.43 33.52,-0.81 38.04,-19.73 27.26,-41.83z"/>
  <path class="fil0" d="M7802.72 2822.97c286.26,0 492.96,-60.91 620.61,-183.14 100.3,-94.39 150.01,-222.23 150.01,-383.13 0,-258.19 -129.3,-430.28 -387.34,-516.26 -100.14,-33.48 -227.67,-50.13 -383.28,-50.13l-720.48 0 0 1132.66 720.48 0zm37.46 -1490.99c386.03,0 676.23,100.03 870.38,300.17 161.05,160.62 241.7,369.38 241.7,624.55 0,255.48 -80.65,463.8 -241.7,624.85 -194.15,199.6 -484.35,299.59 -870.38,299.59l-757.94 0 0 891.47c0,52.76 -18.65,96.9 -55.85,132.97 -37.73,36.27 -82.99,54.38 -135.44,54.38 -52.99,0 -97.28,-18.11 -133.36,-54.38 -36.26,-36.07 -53.95,-80.21 -53.95,-132.97l0 -2548.8c0,-52.72 17.69,-97.94 53.95,-135.4 36.08,-37.35 80.37,-56.43 133.36,-56.43l949.24 0z"/>
  <path class="fil0" d="M10070.26 1311.16c27.5,-52.45 69.48,-79.02 124.95,-79.02 110.88,0 166.76,51.64 166.76,154.11 0,39.12 -14.06,73.72 -41.83,104.23l-287.5 341.18c-24.79,30.9 -54.77,46.04 -89.64,46.04 -34.61,0 -62.14,-10.35 -83.11,-31.05 -21.01,-21.13 -31.21,-44.03 -31.21,-68.67 0,-41.83 9.65,-72.22 29.01,-91.84l212.57 -374.98zm-637.09 2303.16c0,222.22 146.99,333.26 441.45,333.26 130.38,0 251.93,-31.75 364.05,-95.67 112.66,-64.03 205.04,-136.21 277.11,-216.74l0 -350.03 -454.11 0c-197.01,0 -351.11,25.07 -461.99,75.07 -111.08,50.25 -166.5,135.14 -166.5,254.1zm-129.19 -1390.68c233.27,-100.27 474.58,-150.01 724.46,-150.01 283.1,0 502.47,85.96 657.92,257.75 139.12,150.17 208.48,337.52 208.48,562.61l0 1178.64c0,52.6 -18.81,96.91 -56.16,133.02 -37.57,36.22 -82.69,54.34 -135.4,54.34 -52.76,0 -97.17,-18.12 -133.13,-54.34 -36.39,-36.11 -54.38,-80.41 -54.38,-133.02l0 -108.29c-74.66,77.67 -175.89,149.74 -301.9,216.36 -126.18,66.77 -286.96,99.99 -480.85,99.99 -191.83,0 -351.37,-55.58 -479.02,-166.61 -133.4,-116.22 -199.9,-269.23 -199.9,-457.94 0,-205.74 77.66,-366.64 233.27,-483.27 169.2,-127.69 410.93,-191.57 724.31,-191.57l504.09 0 0 -33.25c0,-186.12 -45.76,-318.55 -137.19,-397.84 -91.84,-78.75 -231.88,-118.68 -420.74,-118.68 -161.32,0 -345.67,33.25 -553.83,100.02 -22.36,5.84 -47.16,8.31 -75.08,8.31 -27.65,0 -56.97,-14.72 -87.32,-43.72 -30.66,-29.05 -46.07,-74.27 -46.07,-135.44 0,-60.91 35.99,-106.68 108.45,-137.07z"/>
  <path class="fil0" d="M12924.79 2727.15c-77.63,-80.37 -166.23,-151.91 -266.22,-214.16 -99.99,-62.83 -211.3,-93.77 -333.39,-93.77 -122.08,0 -226.32,15.3 -312.45,45.53 -85.81,30.94 -160.75,75.08 -224.66,133.64 -136.27,127.4 -204.08,313.65 -204.08,557.69 0,358.45 142.79,588.71 428.74,691.44 86.13,30.78 190.37,46.08 312.45,46.08 202.72,0 402.59,-102.73 599.6,-308.47l0 -857.98zm0 -337.21l0 -104.23c0,-52.45 18.15,-97.68 54.23,-135.14 36.11,-37.62 80.4,-56.27 133.39,-56.27 52.72,0 97.56,18.64 135.29,56.27 37.46,37.46 56,82.69 56,135.14l0 1861.98c0,352.34 -84.74,622.39 -253.7,809.7 -169.2,187.35 -411.17,281.09 -724.82,281.09 -333.14,0 -630.3,-72.22 -891.07,-216.35 -50.29,-30.67 -74.81,-73.16 -74.81,-127.26 0,-53.95 15.95,-99.18 47.69,-135.41 32.02,-35.99 65.01,-53.95 99.88,-53.95 34.72,0 65.93,5.56 93.47,16.73 211.3,105.32 440.36,158.62 687.34,158.62 424.84,0 637.11,-226.72 637.11,-679.2l0 -279.19c-197.01,211.33 -434.49,316.5 -712.03,316.5 -263.63,0 -489.8,-88.67 -678.78,-266.33 -219.48,-202.89 -329.05,-474.86 -329.05,-816.55 0,-341.29 109.57,-613.39 329.05,-816.15 188.98,-177.5 418.55,-266.37 689.28,-266.37 270.86,0 504.51,105.47 701.52,316.39z"/>
  <path class="fil0" d="M13770.37 2148.36c36.11,-35.96 81.49,-53.95 135.44,-53.95 53.95,0 99.29,17.99 135.29,53.95 35.84,36 54.07,82.03 54.07,137.34l0 1786.9c0,52.72 -18.23,96.86 -54.07,133.13 -36,36.11 -81.34,54.22 -135.29,54.22 -53.95,0 -99.33,-18.11 -135.44,-54.22 -36.11,-36.27 -54.08,-80.41 -54.08,-133.13l0 -1786.9c0,-55.31 17.96,-101.34 54.08,-137.34z"/>
  <path class="fil0" d="M15569.56 2423.54c-244.33,0 -472.12,133.09 -683.45,399.46l0 1249.68c0,52.6 -18.5,96.75 -55.85,132.98 -37.35,36.22 -82.58,54.34 -135.44,54.34 -52.72,0 -97.25,-18.12 -133.09,-54.34 -36.11,-36.22 -54.23,-80.37 -54.23,-132.98l0 -1787.06c0,-55.3 18.12,-101.34 54.23,-137.34 35.84,-35.8 80.37,-53.95 133.09,-53.95 52.87,0 98.09,18.16 135.44,53.95 37.35,36 55.85,82.04 55.85,137.34l0 170.86c111.34,-116.48 207.13,-198.52 287.76,-245.63 158.31,-91.69 308.9,-137.22 451.68,-137.22 143.06,0 260.5,21.27 352.19,64.31 91.58,43.22 169.09,101.92 232.85,176.99 130.39,152.75 195.93,344.32 195.93,574.57l0 1183.17c0,52.6 -18.65,96.75 -56.16,132.98 -37.46,36.22 -82.81,54.34 -135.29,54.34 -52.99,0 -97.4,-18.12 -133.36,-54.34 -36.11,-36.22 -54.11,-80.37 -54.11,-132.98l0 -1141.34c0,-158.46 -35.42,-282.44 -106.13,-372.65 -70.98,-90.19 -188.43,-135.14 -351.92,-135.14z"/>
  <path class="fil0" d="M16989.51 3614.36c0,222.23 146.99,333.11 441.45,333.11 130.65,0 252.05,-31.58 364.58,-95.78 112.12,-64.14 204.51,-135.95 276.72,-216.63l0 -349.87 -453.99 0c-197.01,0 -351.11,25.06 -462.26,75.07 -111.07,50.25 -166.5,134.86 -166.5,254.09zm-129.19 -1390.95c233.28,-99.99 474.86,-149.9 725.01,-149.9 283.1,0 502.31,85.98 657.65,257.92 138.84,150.16 208.48,337.52 208.48,562.6l0 1178.54c0,52.72 -19.08,96.87 -56.54,133.13 -37.19,36.07 -82.58,54.22 -135.6,54.22 -52.45,0 -96.71,-18.15 -132.82,-54.22 -36.38,-36.26 -54.23,-80.41 -54.23,-133.13l0 -108.33c-74.92,77.83 -175.49,149.89 -301.67,216.35 -126.56,66.78 -286.92,100.15 -480.96,100.15 -191.56,0 -351.37,-55.7 -479.29,-166.62 -133.39,-116.36 -199.75,-269.34 -199.75,-457.93 0,-205.74 77.51,-366.8 233.12,-483.27 169.47,-127.8 410.78,-191.57 724.85,-191.57l503.7 0 0 -33.37c0,-186 -45.64,-318.55 -137.48,-397.83 -91.54,-78.75 -231.89,-118.69 -420.59,-118.69 -160.9,0 -345.51,33.25 -553.84,100.14 -22.08,5.84 -47.31,8.15 -74.96,8.15 -27.77,0 -56.93,-14.55 -87.17,-43.56 -30.94,-29.05 -46.07,-74.27 -46.07,-135.45 0,-60.91 35.99,-106.67 108.17,-137.33z"/>
  <path class="fil0" d="M19504.9 3930.78c308.08,0 462.46,-98.52 462.46,-295.68 0,-60.91 -30.94,-107.48 -91.99,-139.39 -60.87,-32.01 -137.73,-60.48 -230.92,-85.11 -93.19,-25.11 -193.77,-50.83 -301.94,-77.29 -108.18,-26.3 -208.99,-63.34 -301.9,-110.34 -93.08,-47.15 -170.05,-108.87 -231.34,-185.31 -60.64,-76.31 -91.58,-170.04 -91.58,-281.2 0,-111.04 16.61,-206.82 50.14,-287.23 33.36,-80.52 83.38,-150.01 149.73,-208.33 147.42,-124.79 351.26,-187.36 612.3,-187.36 208.17,0 409.43,34.64 603.86,104.12 38.85,13.75 68.4,36.11 89.52,66.74 20.86,30.66 31.21,64.18 31.21,101.65 0,37.62 -15.95,73.16 -47.85,106.41 -31.71,33.52 -62.92,49.86 -93.73,49.86 -30.36,0 -67.98,-6.65 -112.39,-20.82 -132.97,-41.44 -279.04,-62.3 -437.35,-62.3 -158.2,0 -278.08,27.69 -360.11,83.11 -82.04,55.61 -122.9,122.35 -122.9,199.75 0,78.09 31.06,135.83 93.74,173.03 62.53,37.5 139.5,68.93 231.07,93.62 91.69,25.07 192.37,50.13 301.79,75.07 109.68,25.34 210.49,59.94 302.05,104.36 216.52,110.66 324.81,282.87 324.81,516.26 0,177.5 -66.62,322.22 -199.86,432.99 -144.4,122.08 -345.67,183.26 -603.86,183.26 -280.27,0 -533.01,-62.26 -757.79,-187.36 -47.31,-33.52 -70.87,-74.92 -70.87,-125.05 0,-49.75 15.42,-92.27 45.93,-126.88 30.12,-34.87 63.49,-52.18 99.87,-52.18 36.11,0 79.3,11.2 129.04,33.8 160.9,71.8 337.32,107.79 528.88,107.79z"/>
  <path class="fil0" d="M30873.11 1554.4c0,150.16 -121.77,271.43 -271.51,271.43 -150.05,0 -271.7,-121.27 -271.7,-271.43 0,-149.86 121.65,-271.39 271.7,-271.39 149.73,0 271.51,121.54 271.51,271.39z"/>
  <path class="fil0" d="M22376.11 3086.41l-888.77 0 444.31 -1070.09 444.46 1070.09zm-142.79 -1541.12c-56.27,-128.46 -154.1,-196.32 -281.9,-196.32l-39.39 0c-127.91,0 -225.48,67.86 -282.28,197.13l-1004.55 2371.94c-16.22,38.31 -24.26,79.99 -24.26,122.62 0,50.55 21.24,98.95 62.92,144.28 42.95,46.46 107.52,70.18 192.26,70.18 64.46,0 151.78,-25.5 203.85,-146.61l241 -578.51 1261.53 0 241.42 579.31c51.52,120.31 139.12,145.81 203.04,145.81 85.12,0 149.73,-23.72 192.91,-70.18 41.56,-45.34 62.68,-93.73 62.68,-144.28 0,-42.64 -8.3,-84.05 -24.41,-123.17l-1004.82 -2372.21z"/>
  <path class="fil0" d="M25844.86 2070.11c-200.84,0 -383.02,57.78 -540.51,171.14 -59.39,39.66 -117.17,97.98 -175.88,177.27 -50.02,-87.36 -114.32,-158.19 -190.91,-211.34 -125.21,-90.99 -266.49,-137.07 -420.31,-137.07 -246.6,0 -451.95,84.89 -611.61,253.29 -1.24,-63.07 -24.95,-118.38 -70.18,-163.64 -46.58,-46.59 -103.54,-70.14 -169.2,-70.14 -66.39,0 -122.5,23.83 -168.15,71.26 -44.69,46.3 -67.71,103.01 -67.71,168.39l0 1689.89c0,65.66 23.17,122.09 68.52,167.31 45.53,45.23 101.53,68.4 167.34,68.4 65.39,0 121.78,-22.59 168.4,-67.32 47,-45.49 71.25,-102.15 71.25,-168.39l0 -1165.87c135.56,-225.63 302.18,-335.85 509.04,-335.85 128.88,0 218.52,33.52 265.52,99.87 51.52,72.34 77.83,185.97 77.83,338.18l0 1063.67c0,65.66 22.87,122.09 68.52,167.31 45.23,45.23 101.22,68.4 167.04,68.4 65.42,0 121.81,-22.59 168.43,-67.32 47.27,-45.49 70.94,-102.15 70.94,-168.39l0 -1165.87c136.14,-225.63 302.22,-335.85 509.18,-335.85 129.04,0 218.53,33.52 265.95,99.87 51.21,72.34 77.66,185.97 77.66,338.18l0 1063.67c0,65.66 22.75,121.81 68.24,167.31 45.23,45.23 101.5,68.4 167.2,68.4 65.27,0 122.2,-22.59 168.39,-67.32 47.27,-45.49 71.26,-102.15 71.26,-168.39l0 -1134.39c0,-214.58 -57.09,-398.11 -169.21,-546.92 -131.89,-177.78 -315.84,-267.73 -547.03,-267.73z"/>
  <path class="fil0" d="M28147.51 3332.81l0 249.88c-61.76,65 -139.66,124.55 -232.46,177 -96.87,55.3 -203,82.96 -315.97,82.96 -322.06,0 -359.41,-146.61 -359.41,-256.84 0,-89.9 39.24,-149.46 123.44,-187.04 96.74,-43.6 235.97,-65.96 413.25,-65.96l371.15 0zm-402.62 -1262.73c-243.21,0 -481.77,49.04 -708.21,146.44 -114.05,48.09 -137.91,126.3 -137.91,183.27 0,74.54 20.58,131.74 61.17,170.59 39.82,37.89 81.38,57.51 123.05,57.51 31.21,0 59.82,-3.17 88.72,-10.66 190.32,-61.18 360.76,-91.81 506.14,-91.81 163.52,0 284.49,32.94 359.56,97.95 68.94,59.39 105.59,162.01 109.53,305.45l-418 0c-308.21,0 -550.7,64.73 -720.22,192.95 -161.97,121.39 -244.01,290.9 -244.01,503.44 0,195.39 70.29,356.13 209.29,477.39 131.09,114.17 296.46,171.95 491.04,171.95 192.64,0 354.78,-34.07 482.31,-101.35 76.16,-40.2 143.33,-82.73 201.65,-127.79 5.18,54.6 27.54,102.03 66.89,141.12 45.1,45.27 101.53,68.41 167.19,68.41 65.27,0 121.92,-22.6 168.28,-67.44 47.27,-45.49 71.1,-102.18 71.1,-168.39l0 -1114.8c0,-226.98 -71.37,-419.09 -211.84,-571.02 -157.92,-174.53 -381.78,-263.2 -665.72,-263.2z"/>
  <path class="fil0" d="M29982.46 2070.11l-19.78 0c-203.41,0 -391.31,89.95 -560.24,268l0 -8.85c0,-65.93 -23.71,-122.62 -70.17,-169.5 -46.58,-46.59 -103.54,-70.14 -169.35,-70.14 -66.08,0 -122.9,23.83 -168.12,71.26 -44.57,46.3 -67.47,103.01 -67.47,168.39l0 1689.89c0,65.66 23.18,121.81 68.56,167.31 45.23,45.23 101.49,68.4 167.04,68.4 65.27,0 122.08,-22.59 168.54,-67.32 47.28,-45.49 70.98,-102.15 70.98,-168.39l0 -1179.51c230.65,-311.6 571.96,-306.53 571.96,-306.53 67.05,0 123.85,-19.89 168.81,-59.83 46.34,-41.01 70.86,-98.52 70.86,-165.8 0,-66.51 -22.08,-123.2 -65.53,-168.43 -44.3,-45.76 -100.14,-68.94 -166.07,-68.94z"/>
  <path class="fil0" d="M30597.82 2089.54c-67.16,0 -123.86,23.18 -168.93,68.41 -45.81,45.53 -68.67,103 -68.67,171.4l0 1689.77c0,65.82 22.86,122.2 68.67,167.42 45.06,45.27 102.03,68.41 168.93,68.41 67.05,0 123.7,-23.14 168.97,-68.41 45.61,-45.49 68.52,-101.61 68.52,-167.42l0 -1689.77c0,-68.41 -22.91,-125.87 -68.52,-171.4 -45.27,-45.23 -101.92,-68.41 -168.97,-68.41z"/>
  <path class="fil0" d="M31363.14 1222.83c-67.01,0 -123.97,23.17 -169.2,68.4 -45.49,45.23 -68.28,103.01 -68.28,171.14l0 2556.7c0,66.08 22.8,122.2 68.28,167.43 45.23,45.23 102.19,68.4 169.2,68.4 66.93,0 123.86,-23.17 169.09,-68.4 45.65,-45.5 68.55,-101.62 68.55,-167.43l0 -2556.7c0,-68.13 -22.9,-125.91 -68.55,-171.14 -45.23,-45.23 -102.15,-68.4 -169.09,-68.4z"/>
  <path class="fil0" d="M32221.9 1222.83c-66.89,0 -123.97,23.17 -169.2,68.4 -45.23,45.23 -68.13,103.01 -68.13,171.14l0 2556.7c0,66.08 22.91,122.2 68.13,167.43 45.23,45.23 102.31,68.4 169.2,68.4 66.62,0 123.85,-23.17 169.5,-68.4 44.96,-45.5 68.13,-101.62 68.13,-167.43l0 -2556.7c0,-68.13 -23.17,-125.91 -68.4,-171.14 -45.39,-45.23 -102.62,-68.4 -169.24,-68.4z"/>
  <path class="fil0" d="M34032.79 3332.81l0 249.88c-61.72,65 -139.5,124.55 -232.43,177 -96.74,55.3 -203.03,82.96 -315.69,82.96 -322.11,0 -359.19,-146.61 -359.19,-256.84 0,-89.9 38.85,-149.46 123.2,-187.04 96.71,-43.6 235.71,-65.96 412.95,-65.96l371.15 0zm-402.63 -1262.73c-243.2,0 -481.61,49.04 -707.93,146.44 -114.32,48.09 -138.15,126.3 -138.15,183.27 0,74.54 20.58,131.74 61.44,170.59 40.05,37.89 81.07,57.51 123.01,57.51 30.94,0 59.71,-3.17 88.72,-10.66 190.06,-61.18 360.54,-91.81 506.18,-91.81 163.49,0 284.21,32.94 359.56,97.95 68.67,59.39 105.59,162.01 109.26,305.45l-417.45 0c-308.63,0 -551.02,64.73 -720.49,192.95 -162.01,121.39 -244.01,290.9 -244.01,503.44 0,195.39 70.29,356.13 209.26,477.39 130.8,114.17 296.22,171.95 490.91,171.95 192.53,0 354.93,-34.07 482.46,-101.35 75.9,-40.2 143.18,-82.73 201.22,-127.79 5.33,54.6 27.81,102.03 67.05,141.12 45.11,45.27 101.49,68.41 167.15,68.41 65.54,0 122.09,-22.6 168.55,-67.44 47.15,-45.49 71.14,-102.18 71.14,-168.39l0 -1114.8c0,-226.98 -71.41,-419.09 -211.88,-571.02 -158.19,-174.53 -382.04,-263.2 -665.99,-263.2z"/>
  <path class="fil0" d="M36011.33 3092.27c-90.07,-43.88 -190.48,-78.21 -297.85,-103.01 -101.38,-22.9 -196.9,-46.62 -283.25,-70.45 -81.23,-21.93 -149.9,-49.85 -203.96,-82.03 -41.71,-25.33 -60.52,-60.09 -60.52,-113.62 0,-53.57 29.7,-99.45 90.88,-141.02 66.89,-45.53 171.02,-68.4 308.08,-68.4 143.06,0 276.14,18.93 395.91,56.12 48.24,15.42 88.29,22.37 123.86,22.37 45.38,0 89.37,-21.82 130.65,-65.16 41.18,-42.64 61.72,-90.02 61.72,-140.58 0,-47.28 -13.36,-91.04 -39.78,-129.58 -26.57,-38.85 -64.73,-67.59 -113.21,-84.89 -189.4,-67.86 -388.18,-101.93 -591.06,-101.93 -259.81,0 -467.05,64.19 -617.06,191.57 -69.79,60.78 -122.62,134.48 -157.5,218.83 -34.34,82.69 -51.52,181.48 -51.52,294.03 0,118.1 33.25,219.48 99.18,302.05 62.68,78.21 142.78,142.63 237.9,190.76 91.26,46.84 191.68,83.22 298.13,109.14 102.58,25.19 198.36,49.44 284.49,72.88 83.11,22.05 152.6,47.97 206.66,75.9 48.93,25.76 55.34,56.38 55.34,80.36 0,60.64 0,221.42 -379.07,221.42 -171.79,0 -332.57,-32.82 -476.7,-97.4 -55.19,-24.83 -102.89,-36.8 -145.68,-36.8 -51.48,0 -97.94,23.44 -138.54,69.48 -38.31,43.33 -57.38,96.59 -57.38,158.31 0,46.07 15.68,112.27 91.46,165.84l5.29 3.4c220.45,122.46 471.3,184.76 745.01,184.76 257.64,0 462.41,-63.11 608.75,-186.81 139.39,-116.37 210.22,-269.34 210.22,-454.54 0,-243.47 -114.44,-425.23 -340.45,-541.01z"/>
  <path class="fil0" d="M36648.12 2343.94c8.99,-0.81 16.76,-2.16 23.4,-4.75 7.1,-2.47 12.55,-6.95 16.49,-12.82 4.24,-5.84 6.14,-14.03 6.14,-24.26 0,-8.42 -1.51,-15.64 -4.64,-20.97 -3.28,-5.02 -7.76,-9.28 -12.94,-12.55 -5.44,-3.13 -11.7,-5.29 -18.53,-6.37 -6.95,-1.24 -13.75,-1.78 -21.39,-1.78l-54.89 0 0 84.35 39.51 0c9,0 18.23,-0.31 26.85,-0.85zm-96.21 134.63l0 -243.74 93.34 0c27.12,0 47.39,5.84 60.22,17.3 12.39,11.43 18.92,28.19 18.92,49.98 0,10.62 -1.78,20.04 -4.9,27.96 -3.4,8.04 -8.03,14.72 -13.33,20.28 -5.75,5.6 -12.39,9.54 -19.77,13.09 -7.34,3.13 -15.14,5.56 -23.44,6.8l72.07 108.32 -34.87 0 -68.13 -108.32 -50.25 0 0 108.32 -29.85 0zm5.18 -288.45c-21.67,9.27 -40.6,22.36 -56.39,38.58 -15.41,16.22 -28.24,35.15 -36.92,56.93 -9,22.36 -13.09,45.54 -13.09,71.15 0,25.21 4.09,48.62 13.09,70.44 8.69,22.05 21.52,41.02 36.92,57.52 15.79,16.18 34.72,29 56.39,38.27 21.66,9.38 45.23,14.44 71.14,14.44 24.92,0 48.63,-5.06 70.14,-14.44 21.39,-9.28 40.35,-22.1 55.99,-38.27 15.95,-16.49 28.35,-35.46 37.89,-57.52 9,-21.82 13.09,-45.23 13.09,-70.44 0,-25.61 -4.09,-48.79 -13.09,-71.15 -9.54,-21.78 -21.93,-40.71 -37.89,-56.93 -15.64,-16.22 -34.6,-29.31 -55.99,-38.58 -21.52,-9.24 -45.23,-14.03 -70.14,-14.03 -25.91,0 -49.48,4.79 -71.14,14.03zm153.82 -27.93c25.5,10.63 47.98,25.76 66.36,44.41 18.92,19.51 33.91,41.84 44.57,67.59 10.89,25.33 16.34,52.99 16.34,82.58 0,29.85 -5.45,57.23 -16.34,82.95 -10.66,25.37 -25.65,47.43 -44.57,66.51 -18.38,18.65 -40.86,33.65 -66.36,43.99 -25.49,11.2 -53.25,16.49 -82.69,16.49 -29.97,0 -57.66,-5.29 -83.39,-16.49 -25.76,-10.34 -47.69,-25.33 -66.62,-43.99 -18.7,-19.08 -33.4,-41.14 -44.03,-66.51 -10.89,-25.72 -16.22,-53.1 -16.22,-82.95 0,-29.59 5.33,-57.24 16.22,-82.58 10.63,-25.76 25.33,-48.09 44.03,-67.59 18.93,-18.65 40.86,-33.79 66.62,-44.41 25.73,-10.89 53.42,-15.91 83.39,-15.91 29.43,0 57.2,5.02 82.69,15.91z"/>
  <path class="fil0" d="M14133.22 1460.47c0,124.52 -100.96,225.63 -225.52,225.63 -124.36,0 -225.19,-101.11 -225.19,-225.63 0,-124.28 100.83,-225.08 225.19,-225.08 124.56,0 225.52,100.8 225.52,225.08z"/>
 </g>
</svg>
